# xmcd CD database file
#
# Track frame offsets:
#	150
#	20872
#	34419
#	53340
#	67292
#	94003
#	112650
#	130245
#
# Disc length: 2063 seconds
#
# Revision: 0
# Processed by: cddbd v1.5.2PL0 Copyright (c) Steve Scherf et al.
# Submitted via: CDex 1.70beta2
#
DISCID=69080d08
DTITLE=Jazzchor Freiburg - Commemorative Album of 2005 Korean Tour CD 2
DYEAR=2005
DGENRE=Jazz
TTITLE0=Cairo
TTITLE1=Cute
TTITLE2=Birdland
TTITLE3=Not Like This
TTITLE4=So What
TTITLE5=A Cappella
TTITLE6=A Cappella In Acapulco
TTITLE7=She's Leaving Home
EXTD=YEAR: 2005
EXTT0=
EXTT1=
EXTT2=
EXTT3=
EXTT4=
EXTT5=
EXTT6=
EXTT7=
PLAYORDER=
